<svg id="visual" viewBox="0 0 1980 1320" width="1980" height="1320" xmlns="http://www.w3.org/2000/svg" xmlns:xlink="http://www.w3.org/1999/xlink" version="1.1"><path d="M0 433L47.2 414.5C94.3 396 188.7 359 283 364C377.3 369 471.7 416 566 417.2C660.3 418.3 754.7 373.7 848.8 354.2C943 334.7 1037 340.3 1131.2 332.7C1225.3 325 1319.7 304 1414 315.3C1508.3 326.7 1602.7 370.3 1697 379.3C1791.3 388.3 1885.7 362.7 1932.8 349.8L1980 337L1980 0L1932.8 0C1885.7 0 1791.3 0 1697 0C1602.7 0 1508.3 0 1414 0C1319.7 0 1225.3 0 1131.2 0C1037 0 943 0 848.8 0C754.7 0 660.3 0 566 0C471.7 0 377.3 0 283 0C188.7 0 94.3 0 47.2 0L0 0Z" fill="#ffeedd"></path><path d="M0 201L47.2 216C94.3 231 188.7 261 283 270C377.3 279 471.7 267 566 268.8C660.3 270.7 754.7 286.3 848.8 296.8C943 307.3 1037 312.7 1131.2 301.5C1225.3 290.3 1319.7 262.7 1414 255.3C1508.3 248 1602.7 261 1697 257C1791.3 253 1885.7 232 1932.8 221.5L1980 211L1980 0L1932.8 0C1885.7 0 1791.3 0 1697 0C1602.7 0 1508.3 0 1414 0C1319.7 0 1225.3 0 1131.2 0C1037 0 943 0 848.8 0C754.7 0 660.3 0 566 0C471.7 0 377.3 0 283 0C188.7 0 94.3 0 47.2 0L0 0Z" fill="#e0a482"></path><path d="M0 230L47.2 222.7C94.3 215.3 188.7 200.7 283 190.5C377.3 180.3 471.7 174.7 566 171.2C660.3 167.7 754.7 166.3 848.8 169.7C943 173 1037 181 1131.2 174.7C1225.3 168.3 1319.7 147.7 1414 137.8C1508.3 128 1602.7 129 1697 144.2C1791.3 159.3 1885.7 188.7 1932.8 203.3L1980 218L1980 0L1932.8 0C1885.7 0 1791.3 0 1697 0C1602.7 0 1508.3 0 1414 0C1319.7 0 1225.3 0 1131.2 0C1037 0 943 0 848.8 0C754.7 0 660.3 0 566 0C471.7 0 377.3 0 283 0C188.7 0 94.3 0 47.2 0L0 0Z" fill="#c0553f"></path></svg>