<svg id="visual" viewBox="0 0 1980 1320" width="1980" height="1320" xmlns="http://www.w3.org/2000/svg" xmlns:xlink="http://www.w3.org/1999/xlink" version="1.1"><path d="M0 413L47.2 423.5C94.3 434 188.7 455 283 439.2C377.3 423.3 471.7 370.7 566 353.7C660.3 336.7 754.7 355.3 848.8 369.3C943 383.3 1037 392.7 1131.2 389.7C1225.3 386.7 1319.7 371.3 1414 377.7C1508.3 384 1602.7 412 1697 408.2C1791.3 404.3 1885.7 368.7 1932.8 350.8L1980 333L1980 0L1932.8 0C1885.7 0 1791.3 0 1697 0C1602.7 0 1508.3 0 1414 0C1319.7 0 1225.3 0 1131.2 0C1037 0 943 0 848.8 0C754.7 0 660.3 0 566 0C471.7 0 377.3 0 283 0C188.7 0 94.3 0 47.2 0L0 0Z" fill="#c0553f"></path><path d="M0 192L47.2 206.3C94.3 220.7 188.7 249.3 283 267.2C377.3 285 471.7 292 566 286.7C660.3 281.3 754.7 263.7 848.8 269C943 274.3 1037 302.7 1131.2 304.8C1225.3 307 1319.7 283 1414 269.7C1508.3 256.3 1602.7 253.7 1697 266.2C1791.3 278.7 1885.7 306.3 1932.8 320.2L1980 334L1980 0L1932.8 0C1885.7 0 1791.3 0 1697 0C1602.7 0 1508.3 0 1414 0C1319.7 0 1225.3 0 1131.2 0C1037 0 943 0 848.8 0C754.7 0 660.3 0 566 0C471.7 0 377.3 0 283 0C188.7 0 94.3 0 47.2 0L0 0Z" fill="#e0a482"></path><path d="M0 219L47.2 209.5C94.3 200 188.7 181 283 165C377.3 149 471.7 136 566 138.3C660.3 140.7 754.7 158.3 848.8 169.5C943 180.7 1037 185.3 1131.2 187.5C1225.3 189.7 1319.7 189.3 1414 181.3C1508.3 173.3 1602.7 157.7 1697 159C1791.3 160.3 1885.7 178.7 1932.8 187.8L1980 197L1980 0L1932.8 0C1885.7 0 1791.3 0 1697 0C1602.7 0 1508.3 0 1414 0C1319.7 0 1225.3 0 1131.2 0C1037 0 943 0 848.8 0C754.7 0 660.3 0 566 0C471.7 0 377.3 0 283 0C188.7 0 94.3 0 47.2 0L0 0Z" fill="#ffeedd"></path></svg>