<svg id="visual" xmlns="http://www.w3.org/2000/svg" viewBox="0 0 1920 474.72"><defs><style>.cls-1{fill:#801332;}.cls-2{fill:#b83e3e;}</style></defs><title>contac_border_up</title><path class="cls-1" d="M1,20,46.7,37.5C92.3,55,183.7,90,275.2,93.8S458.3,70.3,549.8,47.7,732.7,7,824,21s182.7,60,274,79.2,182.7,11.5,274.2-17.2,183.1-78.3,274.6-71,182.9,71.7,228.5,103.8L1921,148V486H1Z" transform="translate(-1 -11.28)"/><path class="cls-2" d="M1,331l45.7-14.5c45.6-14.5,137-43.5,228.5-78.7s183.1-76.5,274.6-56.1S732.7,284,824,316.8s182.7,16.5,274-12.5,182.7-70.6,274.2-65.6,183.1,56.6,274.6,59.6,182.9-42.6,228.5-65.5L1921,210V486H1Z" transform="translate(-1 -11.28)"/></svg>